<svg width="709" height="766" viewBox="0 0 709 766" fill="none" xmlns="http://www.w3.org/2000/svg">
<path fill-rule="evenodd" clip-rule="evenodd" d="M9.34591 1.17469C5.49191 2.88569 2.20392 7.43769 0.852915 12.9317C0.104915 15.9767 -0.130085 118.063 0.0659152 354.773C0.343915 690.014 0.358915 692.299 2.34592 696.209C3.44592 698.373 6.07391 701.523 8.18691 703.209L12.0279 706.273L39.9369 706.568C67.3229 706.857 67.8459 706.901 67.8459 708.915C67.8459 710.922 75.2669 726.183 77.3129 728.384C77.8809 728.995 79.6189 731.114 81.1739 733.093C92.4539 747.444 107.154 757.381 125.846 763.29C133.236 765.626 152.792 766.395 163.801 764.782C168.501 764.093 172.779 763.274 173.309 762.961C173.839 762.648 175.864 762.245 177.809 762.065C184.34 761.464 213.754 754.829 225.346 751.344C228.096 750.517 233.271 749.031 236.846 748.043C240.421 747.055 243.796 745.974 244.346 745.642C244.896 745.309 247.821 744.468 250.846 743.774C253.871 743.079 256.796 742.179 257.346 741.773C257.896 741.367 260.821 740.467 263.846 739.773C266.871 739.079 269.796 738.199 270.346 737.817C270.896 737.435 273.371 736.574 275.846 735.902C278.321 735.23 281.246 734.293 282.346 733.818C285.045 732.655 293.437 729.9 298.346 728.567C300.546 727.969 302.796 727.161 303.346 726.772C303.896 726.382 306.483 725.45 309.096 724.7C311.709 723.95 313.846 722.985 313.846 722.555C313.846 722.125 315.169 721.773 316.787 721.773C318.405 721.773 320.006 721.323 320.346 720.773C320.686 720.223 322.062 719.773 323.405 719.773C324.748 719.773 325.846 719.323 325.846 718.773C325.846 718.223 327.196 717.773 328.846 717.773C330.496 717.773 331.846 717.323 331.846 716.773C331.846 716.223 332.719 715.773 333.787 715.773C334.855 715.773 336.006 715.323 336.346 714.773C336.686 714.223 338.25 713.773 339.822 713.773C341.393 713.773 342.865 713.216 343.092 712.535C343.42 711.55 344.062 711.55 346.222 712.535C347.717 713.216 350.494 713.773 352.393 713.773C354.292 713.773 355.846 714.223 355.846 714.773C355.846 715.323 357.169 715.773 358.787 715.773C360.405 715.773 362.006 716.223 362.346 716.773C362.686 717.323 364.711 717.773 366.846 717.773C368.981 717.773 371.006 718.223 371.346 718.773C371.686 719.323 373.036 719.773 374.346 719.773C375.656 719.773 377.006 720.223 377.346 720.773C377.686 721.323 379.744 721.773 381.919 721.773C384.094 721.773 386.655 722.204 387.61 722.73C389.338 723.684 397.464 725.713 409.851 728.285C413.428 729.028 417.478 730.061 418.851 730.58C420.223 731.1 423.821 731.856 426.846 732.261C429.871 732.666 432.796 733.337 433.346 733.754C433.896 734.17 438.171 735.106 442.846 735.835C447.521 736.563 451.571 737.443 451.846 737.791C452.121 738.138 456.396 738.979 461.346 739.66C466.296 740.341 471.246 741.289 472.346 741.766C477.752 744.111 524.782 749.71 539.346 749.743C558.094 749.786 575.097 743.906 595.846 730.208C606.957 722.872 610.183 720.296 617.994 712.523L623.772 706.773H658.993C699.08 706.773 699.58 706.684 705.346 698.521L708.346 694.273L708.637 355.773C708.796 169.598 708.658 15.3697 708.328 13.0447C707.905 10.0557 706.596 7.56269 703.863 4.54469L699.997 0.272686L356.171 0.0576863C71.6699 -0.119314 11.8279 0.0726864 9.34591 1.17469ZM698.843 7.38869L702.846 11.0057V352.489V693.973L699.197 697.623L695.548 701.273L663.64 701.608C646.091 701.793 631.064 701.687 630.246 701.373C628.677 700.771 629.431 698.411 632.089 695.601C632.781 694.871 634.02 692.923 634.844 691.273C635.669 689.623 636.569 688.048 636.844 687.773C638.124 686.498 641.76 677.774 642.888 673.273C643.577 670.523 644.525 667.846 644.993 667.323C646.117 666.071 646.102 637.773 644.978 637.773C644.174 637.773 643.809 636.287 642.274 626.773C641.964 624.848 641.342 622.373 640.892 621.273C640.442 620.173 639.521 617.248 638.846 614.773C638.171 612.298 637.265 609.373 636.833 608.273C636.401 607.173 635.499 604.698 634.829 602.773C634.158 600.848 632.763 597.365 631.728 595.034C630.693 592.702 629.846 590.141 629.846 589.343C629.846 588.544 629.477 587.663 629.026 587.384C628.575 587.106 626.928 583.704 625.367 579.825C623.806 575.947 622.221 572.773 621.845 572.773C621.47 572.773 620.592 570.86 619.894 568.523C619.196 566.186 618.329 564.048 617.966 563.773C617.604 563.498 615.138 558.998 612.486 553.773C609.834 548.548 606.618 542.473 605.339 540.273C604.061 538.073 602.103 534.473 600.99 532.273C598.13 526.623 595.474 522.33 594.596 521.94C594.183 521.756 593.846 520.744 593.846 519.69C593.846 518.635 593.479 517.773 593.031 517.773C592.583 517.773 591.461 516.311 590.537 514.523C589.614 512.735 588.411 510.598 587.864 509.773C586.823 508.204 578.251 494.054 575.778 489.824C574.99 488.477 573.985 486.902 573.544 486.324C573.103 485.746 569.782 480.773 566.164 475.273C556.167 460.075 538.639 434.337 537.903 433.773C537.543 433.498 536.184 431.698 534.881 429.773C530.964 423.986 519.481 408.411 517.601 406.334C516.636 405.268 515.846 403.843 515.846 403.168C515.846 402.492 515.454 401.79 514.975 401.606C514.496 401.423 511.738 398.123 508.847 394.273C505.955 390.423 502.119 385.473 500.321 383.273C498.523 381.073 494.352 375.898 491.052 371.773C477.986 355.443 455.481 332.585 442.835 322.799C440.366 320.888 438.121 319.088 437.846 318.799C433.757 314.498 413.39 304.222 404.234 301.84L400.122 300.77L399.446 294.17C398.722 287.107 399.372 285.371 403.186 284.171C406.744 283.052 416.068 276.26 420.419 271.618C426.726 264.889 429.907 260.681 429.358 259.793C429.083 259.347 429.469 258.748 430.217 258.461C430.964 258.174 432.185 255.877 432.929 253.356C433.674 250.835 434.634 248.773 435.064 248.773C435.494 248.773 435.846 247.198 435.846 245.273C435.846 243.348 435.447 241.773 434.959 241.773C434.122 241.773 433.491 243.993 432.189 251.523C431.88 253.311 431.226 254.773 430.737 254.773C430.247 254.773 429.846 255.275 429.846 255.889C429.846 257.589 422.9 266.687 417.846 271.608C412.749 276.571 404.57 282.187 400.846 283.282C399.471 283.687 397.896 284.364 397.346 284.788C392.777 288.306 366.56 290.122 356.11 287.643C347.204 285.531 337.363 281.674 330.846 277.742C324.684 274.025 317.846 268.488 317.846 267.216C317.846 266.894 317.284 266.038 316.596 265.313C313.421 261.968 311.846 259.63 311.846 258.262C311.846 257.443 311.396 256.773 310.846 256.773C310.296 256.773 309.846 257.673 309.846 258.773C309.846 259.873 310.296 260.773 310.846 260.773C311.396 260.773 311.846 261.448 311.846 262.273C311.846 263.098 312.296 263.773 312.846 263.773C313.396 263.773 313.846 264.7 313.846 265.832C313.846 267.149 314.267 267.631 315.016 267.168C315.859 266.647 315.934 266.98 315.284 268.359C314.147 270.77 313.437 295.514 314.536 294.421C314.981 293.978 315.571 288.045 315.846 281.236L316.346 268.858L326.911 278.64C332.721 284.02 339.598 289.882 342.193 291.667C348.372 295.919 359.438 301.335 363.846 302.265C365.771 302.672 367.838 303.399 368.439 303.881C369.041 304.363 372.416 305.23 375.939 305.806C379.463 306.382 384.596 307.252 387.346 307.74C396.419 309.349 399.539 309.054 400.202 306.523C400.711 304.579 401.452 305.319 405.646 311.959L410.501 319.645L410.675 338.356C410.77 348.648 411.26 358.689 411.764 360.67C412.268 362.652 412.991 370.521 413.372 378.156L414.065 392.04L411.933 390.546C410.76 389.725 408.342 387.752 406.56 386.163C401.242 381.42 386.442 369.158 385.091 368.376C384.221 367.872 382.741 370.047 380.268 375.461C378.306 379.758 375.833 385.103 374.773 387.339C373.713 389.575 372.846 391.937 372.846 392.589C372.846 393.24 372.396 393.773 371.846 393.773C371.296 393.773 370.846 394.453 370.846 395.284C370.846 396.115 370.008 398.702 368.983 401.034C367.958 403.365 366.682 406.383 366.147 407.74C365.175 410.202 365.167 410.198 361.906 405.74C360.109 403.283 358.377 400.618 358.056 399.817C357.736 399.017 356.896 397.667 356.189 396.817C355.482 395.968 352.216 391.448 348.931 386.773C345.646 382.098 342.551 377.802 342.053 377.227C341.556 376.652 340.968 375.739 340.747 375.198C340.527 374.656 335.621 367.548 329.846 359.401C324.071 351.255 318.896 343.843 318.346 342.931C317.796 342.019 317.098 341.048 316.796 340.773C315.233 339.353 298.846 316.746 298.846 316.011C298.846 315.537 299.634 314.277 300.596 313.211C301.558 312.144 303.522 309.697 304.959 307.772C306.395 305.848 308.938 302.811 310.61 301.023C313.042 298.422 313.3 297.773 311.901 297.773C310.939 297.773 308.593 299.235 306.686 301.023C304.779 302.81 298.072 307.851 291.782 312.224C278.029 321.787 250.145 349.033 235.957 366.773C230.899 373.098 225.956 379.173 224.973 380.273C223.481 381.943 205.053 406.278 198.847 414.773C197.842 416.148 195.496 419.298 193.634 421.773C191.771 424.248 186.681 431.448 182.322 437.773C177.964 444.098 174.036 449.723 173.594 450.273C171.511 452.866 140.733 499.931 138.282 504.273C136.876 506.762 131.252 516.345 123.902 528.773C120.813 533.998 117.624 539.623 116.817 541.273C116.01 542.923 115.066 544.498 114.72 544.773C114.125 545.245 111.334 550.338 101.189 569.458C98.7999 573.96 96.8459 578.155 96.8459 578.78C96.8459 579.405 96.1669 580.595 95.3369 581.425C94.5069 582.255 94.0829 583.348 94.3959 583.854C94.7079 584.359 94.4869 584.773 93.9049 584.773C93.3229 584.773 92.8459 585.673 92.8459 586.773C92.8459 587.873 92.5019 588.773 92.0819 588.773C91.3359 588.773 90.5389 590.413 84.7949 603.773C83.2579 607.348 81.2929 611.623 80.4289 613.273C79.5649 614.923 78.8559 616.655 78.8519 617.122C78.8489 617.589 78.2239 619.389 77.4629 621.122C76.7029 622.855 75.5319 625.848 74.8619 627.773C74.1919 629.698 73.2989 632.173 72.8759 633.273C70.3219 639.925 67.8459 648.974 67.8459 651.654C67.8459 653.37 67.4449 654.773 66.9549 654.773C64.5899 654.773 62.5009 679.187 63.8859 690.636C64.6149 696.658 64.6739 700.345 64.0529 700.966C63.4659 701.553 53.5239 701.802 38.7169 701.602C15.4019 701.287 14.2109 701.177 11.2279 699.049C9.51291 697.826 7.59592 695.576 6.96792 694.049C6.11692 691.982 5.89092 604.424 6.08492 351.104L6.34592 10.9337L8.84591 8.24369C10.2209 6.76469 12.2459 5.18169 13.3459 4.72669C14.4459 4.27169 168.232 3.87069 355.093 3.83569L694.84 3.77269L698.843 7.38869ZM383.408 51.6727C383.034 52.2777 381.405 52.7727 379.787 52.7727C378.169 52.7727 376.846 53.2227 376.846 53.7727C376.846 54.3227 376.12 54.7727 375.232 54.7727C373.249 54.7727 365.627 58.8367 364.588 60.4477C364.172 61.0937 362.367 62.1057 360.577 62.6967C357.101 63.8437 353.566 63.1767 348.346 60.3877C346.696 59.5057 344.296 58.7827 343.013 58.7787C339.471 58.7697 340.948 61.1717 344.925 61.8907C347.715 62.3957 347.24 62.5447 342.346 62.7007C327.751 63.1657 313.224 67.8687 305.678 74.5717C299.206 80.3197 296.846 82.8347 296.846 83.9817C296.846 84.8317 296.488 84.7937 295.596 83.8477C294.596 82.7877 294.596 82.4307 295.596 82.0647C296.284 81.8127 296.846 80.9197 296.846 80.0807C296.846 78.1087 305.066 70.4357 310.846 67.0117C313.321 65.5467 315.496 63.9927 315.679 63.5597C315.863 63.1267 317.299 62.7727 318.87 62.7727C320.442 62.7727 322.006 62.3227 322.346 61.7727C322.686 61.2227 324.287 60.7727 325.905 60.7727C327.523 60.7727 328.846 60.3227 328.846 59.7727C328.846 59.2227 327.608 58.7747 326.096 58.7777C323.107 58.7827 312.378 62.8407 310.567 64.6517C309.95 65.2687 308.924 65.7727 308.287 65.7727C306.197 65.7727 297.806 73.9297 294.519 79.1557C290.082 86.2097 288.846 89.2967 288.846 93.3197C288.846 95.9777 288.432 96.7727 287.046 96.7727C286.056 96.7727 284.819 97.1627 284.296 97.6397C283.774 98.1167 281.158 99.2317 278.483 100.118C271.732 102.354 263.158 108.269 261.211 112.033C255.879 122.345 259.956 138.313 272.02 154.364C275.005 158.336 275.846 160.356 275.846 163.555C275.846 165.81 276.296 167.933 276.846 168.273C277.462 168.653 277.846 166.977 277.846 163.911C277.846 159.262 278.033 158.891 280.667 158.312C284.795 157.406 290.092 152.627 292.795 147.372L295.16 142.773H300.543C306.877 142.773 311.425 140.686 317.806 134.851C320.259 132.608 322.553 130.773 322.903 130.773C323.254 130.773 324.029 131.785 324.626 133.023C325.222 134.261 325.741 134.711 325.778 134.023C325.852 132.668 328.846 132.245 328.846 133.59C328.846 134.039 331.677 134.969 335.137 135.657C340.096 136.642 342.478 136.651 346.387 135.697C350.801 134.621 353.161 133.643 361.588 129.402C362.821 128.781 363.834 127.935 363.838 127.523C363.851 126.269 366.644 126.686 367.184 128.023C367.461 128.711 367.724 128.211 367.767 126.914C367.84 124.741 368.143 124.608 371.596 125.234C378.909 126.56 398.024 126.995 399.157 125.862C399.756 125.263 401.479 124.773 402.987 124.773C404.495 124.773 406 124.332 406.333 123.793C407.234 122.337 410.846 124.914 410.846 127.014C410.846 127.981 411.296 128.773 411.846 128.773C412.396 128.773 412.846 130.123 412.846 131.773C412.846 133.423 413.296 134.773 413.846 134.773C414.396 134.773 414.846 135.673 414.846 136.773C414.846 137.873 415.296 138.773 415.846 138.773C416.396 138.773 416.846 139.829 416.846 141.119C416.846 143.981 419.617 149.773 420.987 149.773C422.075 149.773 421.177 145.868 419.734 144.323C419.245 143.8 418.846 142.653 418.846 141.772C418.846 139.696 416.566 134.791 415.596 134.781C415.183 134.777 414.846 134.093 414.846 133.262C414.846 132.431 413.866 129.665 412.667 127.116L410.488 122.481L412.667 120.717C413.866 119.746 414.846 118.504 414.846 117.956C414.846 117.408 415.746 117.196 416.846 117.483C418.731 117.976 419.717 116.427 418.096 115.52C417.683 115.29 417.933 115.248 418.652 115.427C420.204 115.814 425.351 110.945 424.398 109.991C424.034 109.628 423.362 109.938 422.903 110.68C422.445 111.422 421.598 111.738 421.022 111.382C420.346 110.964 420.886 108.742 422.547 105.114C424.77 100.259 425.112 98.1687 425.063 89.7477C425.031 84.3867 424.59 79.1617 424.083 78.1367C423.576 77.1117 422.096 74.0757 420.795 71.3907C419.493 68.7057 417.172 65.2527 415.637 63.7177C414.102 62.1827 412.846 60.4417 412.846 59.8497C412.846 59.2577 411.856 58.7727 410.646 58.7727C409.179 58.7727 408.779 58.4397 409.446 57.7727C410.501 56.7177 415.823 58.5907 415.838 60.0227C415.842 60.4347 416.521 60.7727 417.346 60.7727C419.145 60.7727 419.391 58.7827 417.596 58.7507C416.909 58.7387 415.221 57.8487 413.846 56.7727C410.975 54.5267 408.263 54.2087 407.458 56.0227C407.154 56.7107 407.004 56.3907 407.125 55.3117C407.299 53.7717 406.489 53.1667 403.346 52.4907C396.293 50.9747 384.147 50.4757 383.408 51.6727ZM332.596 58.4787C333.834 58.7167 335.858 58.7167 337.096 58.4787C338.334 58.2397 337.321 58.0447 334.846 58.0447C332.371 58.0447 331.358 58.2397 332.596 58.4787ZM419.659 62.4557C420.38 62.7447 421.243 62.7087 421.575 62.3767C421.907 62.0447 421.317 61.8087 420.263 61.8517C419.098 61.8997 418.861 62.1367 419.659 62.4557ZM420.846 64.7727C420.846 65.3227 421.228 65.7727 421.694 65.7727C422.161 65.7727 423.354 67.5727 424.346 69.7727C425.338 71.9727 426.531 73.7727 426.998 73.7727C427.464 73.7727 427.846 74.8707 427.846 76.2137C427.846 77.5567 428.296 78.9327 428.846 79.2727C429.396 79.6127 429.846 83.6627 429.846 88.2727C429.846 92.8827 429.396 96.9327 428.846 97.2727C428.296 97.6127 427.839 99.7767 427.831 102.082C427.821 104.755 427.509 105.79 426.97 104.939C426.286 103.861 426.01 103.903 425.529 105.157C425.201 106.011 425.313 106.943 425.776 107.23C427.202 108.111 429.153 104.866 429.065 101.761C429.015 99.9987 429.456 98.9087 430.164 99.0457C430.992 99.2047 431.431 96.3857 431.631 89.6297C431.881 81.1767 431.611 79.2987 429.444 74.3977C426.503 67.7477 420.846 61.4147 420.846 64.7727ZM293.529 86.9607C293.21 87.7577 292.973 87.5207 292.925 86.3557C292.882 85.3017 293.118 84.7117 293.45 85.0437C293.782 85.3757 293.818 86.2387 293.529 86.9607ZM420.846 112.773C420.846 113.323 420.396 113.773 419.846 113.773C419.296 113.773 418.846 113.323 418.846 112.773C418.846 112.223 419.296 111.773 419.846 111.773C420.396 111.773 420.846 112.223 420.846 112.773ZM359.846 133.656C359.846 134.537 357.532 135.543 352.903 136.676C351.559 137.004 350.659 137.723 350.903 138.273C351.447 139.501 355.219 139.083 355.679 137.744C355.863 137.21 356.682 136.773 357.501 136.773C358.951 136.773 361.846 134.488 361.846 133.344C361.846 133.03 361.396 132.773 360.846 132.773C360.296 132.773 359.846 133.171 359.846 133.656ZM327.659 136.456C328.38 136.745 329.243 136.709 329.575 136.377C329.907 136.045 329.317 135.809 328.263 135.852C327.098 135.9 326.861 136.137 327.659 136.456ZM330.846 137.615C330.846 139.059 338.312 140.774 344.462 140.743C349.209 140.718 349.982 140.501 348.464 139.619C347.378 138.988 344.524 138.769 341.714 139.102C337.859 139.559 336.846 139.376 336.846 138.226C336.846 137.278 335.803 136.773 333.846 136.773C332.196 136.773 330.846 137.152 330.846 137.615ZM389.431 139.817C386.2 140.783 384.884 142.322 384.861 145.163C384.835 148.47 387.864 149.707 396.073 149.741C403.172 149.77 403.929 149.575 405.394 147.34C407.566 144.025 406.049 141.45 401.039 139.949C396.556 138.606 393.593 138.572 389.431 139.817ZM382.096 145.513C380.664 146.002 380.404 149.382 381.735 150.205C382.224 150.507 382.934 151.988 383.313 153.497C383.979 156.153 389.973 170.861 393.915 179.512C394.977 181.844 395.846 184.137 395.846 184.608C395.846 185.08 396.547 186.871 397.404 188.589C398.261 190.306 399.22 193.3 399.535 195.242L400.108 198.773H395.977C391.005 198.773 390.789 199.834 394.033 208.311C396.164 213.88 396.172 214.061 394.342 215.4C392.049 217.076 379.189 217.302 378.647 215.675C378.445 215.071 377.17 214.749 375.813 214.96C373.707 215.287 374.191 215.74 379.126 218.058C385.997 221.286 387.771 221.378 394.346 218.847C399.181 216.986 399.338 216.801 399.113 213.235C398.985 211.206 398.197 208.178 397.363 206.506C396.529 204.834 395.846 203.268 395.846 203.026C395.846 202.783 398.096 202.895 400.846 203.273C405.687 203.939 405.846 203.882 405.846 201.481C405.846 200.117 405.174 197.713 404.352 196.137C403.531 194.562 402.84 192.598 402.818 191.773C402.796 190.948 401.923 188.473 400.878 186.273C399.549 183.477 399.296 181.972 400.037 181.273C400.749 180.601 401.246 180.683 401.554 181.523C402.08 182.957 404.846 183.237 404.846 181.856C404.846 181.352 404.284 180.713 403.596 180.435C402.786 180.108 402.907 179.903 403.941 179.852C408.014 179.65 410.097 173.195 407.93 167.493C406.401 163.473 403.977 161.773 399.775 161.773C396.372 161.773 395.844 162.074 395.831 164.023C395.822 165.261 395.379 166.948 394.846 167.773C394.018 169.055 393.874 169.019 393.861 167.523C393.853 166.56 393.426 165.773 392.913 165.773C392.4 165.773 391.67 164.761 391.29 163.523C390.911 162.285 389.253 158.573 387.607 155.273C385.96 151.973 384.328 148.331 383.98 147.179C383.631 146.028 382.784 145.278 382.096 145.513ZM421.544 151.474C421.129 152.134 421.687 155.284 422.784 158.474L424.779 164.273L424.813 160.223C424.831 157.995 424.44 155.745 423.943 155.223C423.446 154.701 422.873 153.373 422.67 152.273C422.419 150.919 422.055 150.661 421.544 151.474ZM344.346 154.278C340.132 155.771 336.2 159.751 335.217 163.521C333.426 170.383 339.827 170.749 348.096 164.258C354.697 159.075 355.792 155.463 351.281 153.748C349.87 153.212 348.633 152.793 348.531 152.817C348.429 152.841 346.546 153.498 344.346 154.278ZM425.416 164.553C425.079 165.614 425.234 167.561 425.761 168.878C426.36 170.374 426.798 170.71 426.93 169.773C427.045 168.948 427.496 170.748 427.931 173.773C429.189 182.526 430.008 185.773 430.959 185.773C431.447 185.773 431.846 188.446 431.846 191.714C431.846 194.982 432.296 197.933 432.846 198.273C433.396 198.613 433.846 201.114 433.846 203.832C433.846 206.55 434.296 208.773 434.846 208.773C436.107 208.773 436.164 198.34 434.916 196.009C434.404 195.054 433.441 190.785 432.774 186.523C431.897 180.906 431.157 178.773 430.088 178.773C429.038 178.773 428.756 178.022 429.111 176.167C429.562 173.809 427.652 164.246 426.501 163.094C426.241 162.835 425.753 163.491 425.416 164.553ZM278.435 173.035C277.988 174.005 277.919 176.255 278.282 178.035C278.644 179.816 279.194 182.736 279.503 184.523C279.812 186.31 280.466 187.773 280.955 187.773C282.137 187.773 282.105 180.437 280.917 179.223C280.407 178.701 279.822 176.698 279.618 174.773C279.331 172.055 279.067 171.667 278.435 173.035ZM348.501 177.602C345.151 181.303 347.271 191.324 351.931 193.819C353.133 194.462 355.637 194.646 357.921 194.26C361.594 193.64 361.846 193.378 361.846 190.174C361.846 186.695 358.325 177.877 356.402 176.538C354.451 175.181 350.17 175.757 348.501 177.602ZM281.528 190.386C281.943 191.468 280.812 191.773 276.382 191.773C271.065 191.773 267.346 193.459 267.346 195.868C267.346 196.274 267.009 196.944 266.596 197.356C264.363 199.589 266.572 216.739 269.096 216.765C269.509 216.769 269.846 217.583 269.846 218.574C269.846 220.808 272.081 225.755 273.096 225.765C273.509 225.769 273.852 226.336 273.859 227.023C273.893 230.116 287.03 243.773 289.972 243.773C291.067 243.773 291.694 244.21 291.364 244.744C290.46 246.207 295.048 247.014 297.87 245.888C300.178 244.967 300.091 244.895 296.596 244.836C294.534 244.802 292.846 244.323 292.846 243.773C292.846 243.223 292.217 242.773 291.447 242.773C289.591 242.773 280.922 234.215 277.175 228.682C274.39 224.572 270.896 217.665 269.474 213.46C269.136 212.462 268.44 211.906 267.927 212.223C267.375 212.564 267.083 209.742 267.211 205.305C267.484 195.869 269.217 193.773 276.745 193.773C279.486 193.773 282.006 194.223 282.346 194.773C282.686 195.323 283.631 195.773 284.447 195.773C285.262 195.773 286.896 196.673 288.076 197.773C289.257 198.873 290.813 199.773 291.535 199.773C292.256 199.773 292.846 200.223 292.846 200.773C292.846 201.323 293.773 201.773 294.905 201.773C296.037 201.773 296.779 202.111 296.554 202.523C296.328 202.935 298.248 205.073 300.821 207.273C304.05 210.035 305.895 212.588 306.782 215.523C307.489 217.861 308.467 219.773 308.956 219.773C309.446 219.773 309.846 221.096 309.846 222.714C309.846 224.332 310.296 225.933 310.846 226.273C311.396 226.613 311.846 227.764 311.846 228.832C311.846 229.9 312.296 230.773 312.846 230.773C313.396 230.773 313.846 232.348 313.846 234.273C313.846 236.198 313.472 237.773 313.015 237.773C312.558 237.773 311.641 238.785 310.977 240.023C309.67 242.458 305.576 244.773 302.575 244.773C300.873 244.773 300.846 244.916 302.275 246.344C303.139 247.209 303.846 248.459 303.846 249.124C303.846 249.788 304.746 250.98 305.846 251.773C306.946 252.566 307.846 254.267 307.846 255.553C307.846 256.857 308.288 257.618 308.846 257.273C310.344 256.347 310.098 255.423 307.229 251.196L304.612 247.34L306.937 245.807C310.154 243.685 313.114 240.681 314.596 238.033C316.097 235.352 316.233 231.13 314.846 230.273C314.296 229.933 313.846 228.782 313.846 227.714C313.846 226.646 313.396 225.773 312.846 225.773C312.296 225.773 311.846 224.928 311.846 223.895C311.846 221.225 309.008 214.773 307.833 214.773C307.29 214.773 306.846 213.71 306.846 212.41C306.846 209.08 293.751 197.212 291.169 198.202C290.429 198.487 290.167 198.101 290.504 197.222C290.828 196.376 290.469 195.773 289.642 195.773C287.81 195.773 283.645 191.907 284.313 190.827C284.594 190.372 283.962 189.775 282.91 189.5C281.57 189.149 281.155 189.415 281.528 190.386ZM283.846 208.879C285.771 210.033 288.628 212.169 290.196 213.625C292.911 216.148 298.846 224.056 298.846 225.151C298.846 225.436 297.461 225.186 295.768 224.596C293.472 223.796 292.011 223.842 290.018 224.779C288.12 225.672 287.766 226.185 288.796 226.554C289.594 226.84 290.402 226.606 290.592 226.036C291.152 224.356 298.236 228.314 301.671 232.227C305.247 236.299 307.291 236.867 306.342 233.523C302.687 220.641 290.285 206.763 282.442 206.777C280.758 206.78 281.033 207.193 283.846 208.879ZM435.846 226.273C435.846 233.764 436.201 237.671 436.846 237.273C437.409 236.925 437.846 232.116 437.846 226.273C437.846 220.43 437.409 215.621 436.846 215.273C436.201 214.875 435.846 218.782 435.846 226.273ZM381.298 234.851C380.915 235.47 378.896 235.797 376.729 235.59C374.497 235.378 372.849 235.657 372.854 236.247C372.865 237.721 378.245 240.076 378.672 238.794C378.86 238.232 379.677 237.773 380.488 237.773C381.3 237.773 381.707 237.357 381.393 236.849C381.079 236.34 381.615 235.767 382.584 235.575C383.791 235.336 383.974 234.992 383.165 234.483C382.516 234.075 381.675 234.24 381.298 234.851ZM249.846 479.839C252.321 480.416 256.596 481.268 259.346 481.733C271.482 483.785 289.407 489.871 299.575 495.391C307.599 499.747 323.899 511.03 333.495 518.871C342.118 525.917 361.846 545.105 361.846 546.447C361.846 547 359.933 548.056 357.596 548.793C355.259 549.53 352.896 550.449 352.346 550.835C351.796 551.22 349.771 551.773 347.846 552.063C343.892 552.658 332.78 555.848 328.531 557.607C326.983 558.248 325.356 558.773 324.915 558.773C323.781 558.773 299.496 566.907 285.846 571.86C279.521 574.155 272.546 576.661 270.346 577.43C266.297 578.844 262.68 580.339 259.724 581.818C258.809 582.276 257.665 582.192 257.097 581.624C256.423 580.95 255.242 581.468 253.514 583.196C252.097 584.613 250.198 585.773 249.296 585.773C248.393 585.773 246.46 586.41 245 587.188C243.54 587.966 239.196 589.847 235.346 591.368C231.496 592.888 227.919 594.502 227.396 594.953C225.906 596.239 222.846 595.916 221.232 594.302C220.423 593.493 217.52 592.533 214.781 592.17C212.042 591.807 209.579 591.15 209.308 590.711C209.036 590.272 206.234 589.627 203.08 589.277C199.926 588.927 196.446 588.262 195.346 587.799C194.246 587.337 191.096 586.398 188.346 585.714C185.596 585.029 181.574 583.637 179.408 582.621C177.242 581.605 174.88 580.773 174.158 580.773C173.436 580.773 172.846 580.323 172.846 579.773C172.846 579.223 172.308 578.773 171.651 578.773C170.993 578.773 169.193 577.564 167.651 576.086C163.459 572.07 163.685 566.146 168.214 561.344C170.067 559.38 172.317 557.773 173.214 557.773C174.112 557.773 174.846 557.323 174.846 556.773C174.846 556.223 176.844 555.773 179.287 555.773C181.73 555.773 184.006 555.323 184.346 554.773C184.686 554.223 184.206 553.773 183.279 553.773C180.928 553.773 169.706 547.949 168.173 545.934C167.478 545.021 166.91 542.473 166.91 540.273C166.91 532.92 170.657 530.451 185.721 527.881C191.921 526.823 197.165 525.787 197.373 525.579C197.582 525.371 195.459 524.112 192.656 522.781C187.345 520.259 181.846 514.05 181.846 510.573C181.846 507.743 184.583 502.984 186.934 501.726C192.632 498.676 200.788 496.821 208.596 496.798C213.133 496.784 216.846 496.413 216.846 495.974C216.846 495.534 215.159 494.567 213.096 493.825C206.713 491.528 204.403 487.337 206.925 482.626C209.173 478.424 213.2 477.654 229.846 478.243C238.371 478.544 247.371 479.262 249.846 479.839ZM225.846 497.53C225.846 498.514 233.107 500.773 236.271 500.773C237.622 500.773 238.985 501.188 239.298 501.696C239.612 502.204 241.326 502.929 243.107 503.307C247.273 504.192 263.739 511.116 270.846 514.972C277.885 518.791 295.251 530.351 296.86 532.29C297.537 533.106 298.731 533.773 299.514 533.773C300.488 533.773 300.213 533.058 298.641 531.504C296.392 529.281 283.947 519.491 280.23 517.021C275.236 513.703 268.717 509.773 268.206 509.773C267.893 509.773 265.503 508.701 262.895 507.392C260.287 506.082 254.822 504.032 250.75 502.835C246.678 501.639 241.964 500.236 240.275 499.717C238.586 499.198 236.025 498.773 234.584 498.773C233.143 498.773 231.686 498.323 231.346 497.773C230.63 496.614 225.846 496.403 225.846 497.53ZM203.659 527.456C204.38 527.745 205.243 527.709 205.575 527.377C205.907 527.045 205.317 526.809 204.263 526.852C203.098 526.9 202.861 527.137 203.659 527.456ZM206.897 529.102C207.201 529.436 209.991 529.792 213.099 529.894C216.775 530.014 218.93 530.549 219.266 531.426C219.551 532.167 220.758 532.773 221.949 532.773C224.658 532.773 232.026 534.83 233.296 535.942C233.819 536.399 235.127 536.773 236.203 536.773C238.453 536.773 263.545 548.952 272.096 554.195C277.713 557.639 279.224 558.008 276.484 555.268C274.247 553.031 258.594 543.179 251.939 539.82C241.027 534.312 225.72 529.81 215.552 529.12C210.489 528.776 206.594 528.768 206.897 529.102ZM464.054 537.859C468.24 538.952 475.344 544.059 477.724 547.687L479.307 550.1L468.827 549.511C456.751 548.831 441.846 549.636 441.846 550.968C441.846 551.494 451.232 551.78 464.096 551.645C486.294 551.413 486.358 551.418 491.346 554.003C496.888 556.874 502.846 562.257 502.846 564.392C502.846 565.151 503.296 565.773 503.846 565.773C504.396 565.773 504.846 566.628 504.846 567.673C504.846 569.037 506.207 570.062 509.677 571.309C512.334 572.265 516.205 574.222 518.28 575.66C522.161 578.348 527.846 587.359 527.846 590.823C527.846 591.895 528.244 592.66 528.731 592.523C529.218 592.385 531.443 593.623 533.676 595.273C537.878 598.378 542.846 606.812 542.846 610.841C542.846 612.841 542.514 612.969 539.096 612.295C537.034 611.889 532.871 611.206 529.846 610.777C526.821 610.349 518.046 608.741 510.346 607.204C500.369 605.213 492.4 604.303 482.614 604.039L468.882 603.668L457.114 614.04C445.1 624.629 433.664 633.039 423.846 638.505C417.665 641.946 402.419 647.274 396.346 648.115C394.146 648.42 391.334 648.97 390.096 649.338C388.827 649.715 387.846 649.574 387.846 649.016C387.846 648.036 385.084 643.039 380.25 635.273C378.881 633.073 377.502 630.485 377.187 629.523C376.871 628.561 376.27 627.773 375.851 627.773C375.432 627.773 374.497 626.311 373.774 624.523C373.051 622.735 372.182 621.048 371.842 620.773C371.502 620.498 368.122 614.873 364.33 608.273C360.539 601.673 357.191 596.048 356.891 595.773C356.591 595.498 355.706 594.148 354.924 592.773C348.192 580.935 336.458 561.023 335.607 559.992C334.832 559.052 335.056 558.327 336.448 557.274C337.492 556.483 338.902 555.822 339.581 555.805C341.934 555.744 358.322 550.697 359.282 549.737C359.812 549.207 360.996 548.773 361.913 548.773C362.829 548.773 365.777 547.924 368.463 546.886C371.148 545.849 378.746 544.022 385.346 542.826C391.946 541.631 398.921 540.264 400.846 539.788C404.328 538.928 421.356 537.055 431.846 536.378C440.071 535.847 459.828 536.756 464.054 537.859ZM194.846 556.773C194.846 557.323 195.724 557.773 196.797 557.773C203.514 557.773 226.628 566.417 240.846 574.246C244.421 576.215 248.133 578.091 249.096 578.416C250.059 578.741 250.846 579.404 250.846 579.89C250.846 580.375 251.606 580.773 252.535 580.773C253.967 580.773 253.897 580.469 252.076 578.773C250.896 577.673 249.461 576.773 248.888 576.773C248.315 576.773 247.846 576.323 247.846 575.773C247.846 575.223 247.171 574.773 246.346 574.773C245.521 574.773 244.842 574.436 244.838 574.023C244.834 573.61 243.821 572.769 242.588 572.153C241.355 571.537 236.746 569.237 232.346 567.043C223.447 562.604 209.869 557.773 206.291 557.773C205.011 557.773 203.686 557.323 203.346 556.773C203.006 556.223 200.955 555.773 198.787 555.773C196.619 555.773 194.846 556.223 194.846 556.773ZM282.846 560.773C282.846 561.323 283.323 561.773 283.905 561.773C284.487 561.773 284.686 561.323 284.346 560.773C284.006 560.223 283.53 559.773 283.287 559.773C283.044 559.773 282.846 560.223 282.846 560.773ZM482.126 567.509C484.755 567.716 488.805 567.713 491.126 567.504C493.447 567.294 491.296 567.125 486.346 567.128C481.396 567.131 479.497 567.303 482.126 567.509ZM497.115 569.466C498.088 569.72 499.438 569.703 500.115 569.429C500.792 569.155 499.996 568.948 498.346 568.968C496.696 568.988 496.142 569.212 497.115 569.466ZM499.574 586.495C501.349 586.716 504.499 586.719 506.574 586.503C508.648 586.286 507.196 586.106 503.346 586.101C499.496 586.097 497.798 586.274 499.574 586.495ZM509.614 588.498C511.411 588.72 514.111 588.716 515.614 588.488C517.117 588.259 515.646 588.077 512.346 588.083C509.046 588.088 507.817 588.275 509.614 588.498ZM519.846 590.156C519.846 590.367 520.746 590.775 521.846 591.063C522.946 591.35 523.846 591.178 523.846 590.679C523.846 590.181 522.946 589.773 521.846 589.773C520.746 589.773 519.846 589.946 519.846 590.156Z" fill="black"/>
</svg>
